<svg width="152" height="180" viewBox="0 0 152 180" fill="none" xmlns="http://www.w3.org/2000/svg">
<path d="M69.6 92C84.1805 92 96 103.892 96 120.541C96 153.838 60 172.865 48 180C36 172.865 0 153.838 0 120.541C0 103.892 12 92 26.4 92C35.3279 92 43.2 96.7568 48 101.514C52.8 96.7568 60.672 92 69.6 92ZM52.4827 166.223C56.7144 163.582 60.528 160.952 64.1035 158.133C78.4018 146.86 86.4 134.542 86.4 120.541C86.4 109.318 79.0224 101.514 69.6 101.514C64.4357 101.514 58.8446 104.221 54.7882 108.241L48 114.968L41.2118 108.241C37.1553 104.221 31.5643 101.514 26.4 101.514C17.0835 101.514 9.6 109.393 9.6 120.541C9.6 134.542 17.5981 146.86 31.8967 158.133C35.472 160.952 39.2856 163.582 43.5173 166.223C44.9501 167.118 46.3733 167.979 48 168.941C49.6267 167.979 51.0499 167.118 52.4827 166.223Z" fill="white"/>
<path d="M83 100V49.5V0H151.214V27.6667H95.9286V122.5L90 110.5L83 100Z" fill="white"/>
</svg>
